<svg width="24" height="24" viewBox="0 0 24 24" fill="none" xmlns="http://www.w3.org/2000/svg">
<path d="M12 20H21M15 5L18 8M16.376 3.622C16.7741 3.22391 17.314 3.00027 17.877 3.00027C18.44 3.00027 18.9799 3.22391 19.378 3.622C19.7761 4.02009 19.9997 4.56002 19.9997 5.123C19.9997 5.68599 19.7761 6.22591 19.378 6.624L7.368 18.635C7.1301 18.8729 6.83602 19.0469 6.513 19.141L3.641 19.979C3.55495 20.0041 3.46374 20.0056 3.37691 19.9834C3.29008 19.9611 3.21083 19.9159 3.14745 19.8526C3.08407 19.7892 3.03889 19.7099 3.01664 19.6231C2.9944 19.5363 2.9959 19.445 3.021 19.359L3.859 16.487C3.95322 16.1643 4.12725 15.8706 4.365 15.633L16.376 3.622Z" stroke="black" stroke-width="2" stroke-linecap="round" stroke-linejoin="round"/>
</svg>
