<svg width="20" height="22" viewBox="0 0 20 22" fill="none" xmlns="http://www.w3.org/2000/svg">
<path d="M7.75 20.75V15.4925C7.75 15.125 8.125 14.75 8.5 14.75H11.5C11.875 14.75 12.25 15.125 12.25 15.5V20.75C12.25 20.9489 12.329 21.1397 12.4697 21.2803C12.6103 21.421 12.8011 21.5 13 21.5H19C19.1989 21.5 19.3897 21.421 19.5303 21.2803C19.671 21.1397 19.75 20.9489 19.75 20.75V10.25C19.7502 10.1514 19.7309 10.0538 19.6933 9.9627C19.6558 9.87159 19.6006 9.78878 19.531 9.719L17.5 7.6895V2.75C17.5 2.55109 17.421 2.36032 17.2803 2.21967C17.1397 2.07902 16.9489 2 16.75 2H15.25C15.0511 2 14.8603 2.07902 14.7197 2.21967C14.579 2.36032 14.5 2.55109 14.5 2.75V4.6895L10.531 0.719C10.4613 0.649155 10.3786 0.593741 10.2875 0.555931C10.1963 0.518121 10.0987 0.498659 10 0.498659C9.90135 0.498659 9.80367 0.518121 9.71255 0.555931C9.62143 0.593741 9.53867 0.649155 9.469 0.719L0.469001 9.719C0.399399 9.78878 0.344231 9.87159 0.306654 9.9627C0.269076 10.0538 0.249825 10.1514 0.250001 10.25V20.75C0.250001 20.9489 0.329019 21.1397 0.469671 21.2803C0.610323 21.421 0.801089 21.5 1 21.5H7C7.19891 21.5 7.38968 21.421 7.53033 21.2803C7.67098 21.1397 7.75 20.9489 7.75 20.75Z" fill="#212529"/>
</svg>
