<svg width="24" height="24" viewBox="0 0 24 24" fill="none" xmlns="http://www.w3.org/2000/svg">
<path d="M18.204 0.489001C18.5356 0.406056 18.8817 0.399748 19.2161 0.470556C19.5505 0.541363 19.8644 0.687426 20.1339 0.897654C20.4034 1.10788 20.6214 1.37675 20.7715 1.68385C20.9216 1.99094 20.9997 2.3282 21 2.67V4.5H21.75C22.3467 4.5 22.919 4.73705 23.341 5.15901C23.7629 5.58097 24 6.15326 24 6.75V20.25C24 20.8467 23.7629 21.419 23.341 21.841C22.919 22.263 22.3467 22.5 21.75 22.5H2.25C1.65326 22.5 1.08097 22.263 0.65901 21.841C0.237053 21.419 1.47137e-07 20.8467 1.47137e-07 20.25V6.75C-0.000209191 6.17078 0.222964 5.61379 0.623066 5.19497C1.02317 4.77615 1.56938 4.52776 2.148 4.5015L18.204 0.489001ZM8.343 4.5H19.5V2.67C19.4997 2.5562 19.4736 2.44396 19.4235 2.34176C19.3735 2.23957 19.3008 2.15011 19.2111 2.08016C19.1213 2.0102 19.0168 1.96159 18.9055 1.938C18.7941 1.91441 18.6789 1.91646 18.5685 1.944L8.343 4.5ZM2.25 6C2.05109 6 1.86032 6.07902 1.71967 6.21967C1.57902 6.36032 1.5 6.55109 1.5 6.75V20.25C1.5 20.4489 1.57902 20.6397 1.71967 20.7803C1.86032 20.921 2.05109 21 2.25 21H21.75C21.9489 21 22.1397 20.921 22.2803 20.7803C22.421 20.6397 22.5 20.4489 22.5 20.25V6.75C22.5 6.55109 22.421 6.36032 22.2803 6.21967C22.1397 6.07902 21.9489 6 21.75 6H2.25Z" fill="#212529"/>
</svg>
