<svg width="24" height="24" viewBox="0 0 24 24" fill="none" xmlns="http://www.w3.org/2000/svg">
<path fill-rule="evenodd" clip-rule="evenodd" d="M4 7H12.17C12.3766 6.41447 12.7597 5.90744 13.2666 5.54879C13.7735 5.19015 14.3791 4.99755 15 4.99755C15.6209 4.99755 16.2265 5.19015 16.7334 5.54879C17.2403 5.90744 17.6234 6.41447 17.83 7H20C20.2652 7 20.5196 7.10536 20.7071 7.29289C20.8946 7.48043 21 7.73478 21 8C21 8.26522 20.8946 8.51957 20.7071 8.70711C20.5196 8.89464 20.2652 9 20 9H17.83C17.6234 9.58553 17.2403 10.0926 16.7334 10.4512C16.2265 10.8099 15.6209 11.0025 15 11.0025C14.3791 11.0025 13.7735 10.8099 13.2666 10.4512C12.7597 10.0926 12.3766 9.58553 12.17 9H4C3.73478 9 3.48043 8.89464 3.29289 8.70711C3.10536 8.51957 3 8.26522 3 8C3 7.73478 3.10536 7.48043 3.29289 7.29289C3.48043 7.10536 3.73478 7 4 7ZM4 15H6.17C6.3766 14.4145 6.75974 13.9074 7.2666 13.5488C7.77346 13.1901 8.37909 12.9976 9 12.9976C9.62091 12.9976 10.2265 13.1901 10.7334 13.5488C11.2403 13.9074 11.6234 14.4145 11.83 15H20C20.2652 15 20.5196 15.1054 20.7071 15.2929C20.8946 15.4804 21 15.7348 21 16C21 16.2652 20.8946 16.5196 20.7071 16.7071C20.5196 16.8946 20.2652 17 20 17H11.83C11.6234 17.5855 11.2403 18.0926 10.7334 18.4512C10.2265 18.8099 9.62091 19.0025 9 19.0025C8.37909 19.0025 7.77346 18.8099 7.2666 18.4512C6.75974 18.0926 6.3766 17.5855 6.17 17H4C3.73478 17 3.48043 16.8946 3.29289 16.7071C3.10536 16.5196 3 16.2652 3 16C3 15.7348 3.10536 15.4804 3.29289 15.2929C3.48043 15.1054 3.73478 15 4 15Z" fill="black"/>
</svg>
